<mxfile host="app.diagrams.net" modified="2023-12-30T22:08:54.444Z" agent="Mozilla/5.0 (Windows NT 10.0; Win64; x64) AppleWebKit/537.36 (KHTML, like Gecko) Chrome/120.0.0.0 Safari/537.36" etag="BUPeWPZ6w0F1OR0wC0O-" version="22.1.16" type="github">
  <diagram name="Страница — 1" id="HwZMOI3E_ZsHrhfsVW5a">
    <mxGraphModel dx="794" dy="412" grid="1" gridSize="10" guides="1" tooltips="1" connect="1" arrows="1" fold="1" page="1" pageScale="1" pageWidth="827" pageHeight="1169" math="0" shadow="0">
      <root>
        <object label="" Class="ForUserOutput" id="0">
          <mxCell />
        </object>
        <mxCell id="1" parent="0" />
        <UserObject label="&lt;p style=&quot;margin:0px;margin-top:4px;text-align:center;&quot;&gt;&lt;br&gt;&lt;b&gt;Class ForUserOutput&lt;/b&gt;&lt;/p&gt;&lt;p style=&quot;text-align: left; margin: 4px 0px 0px;&quot;&gt;+ type_output&lt;/p&gt;&lt;p style=&quot;text-align: left; margin: 4px 0px 0px;&quot;&gt;+ get_type_output()&lt;/p&gt;&lt;p style=&quot;margin:0px;margin-top:4px;text-align:center;&quot;&gt;&lt;b&gt;&lt;br&gt;&lt;/b&gt;&lt;/p&gt;" tooltip="ForUserOutput" id="h4rz5uWC_36sq37xX0iJ-5">
          <mxCell style="verticalAlign=middle;align=center;overflow=fill;fontSize=12;fontFamily=Helvetica;html=1;whiteSpace=wrap;fontStyle=2;labelPosition=center;verticalLabelPosition=middle;" vertex="1" parent="1">
            <mxGeometry x="344" y="20" width="186" height="80" as="geometry" />
          </mxCell>
        </UserObject>
      </root>
    </mxGraphModel>
  </diagram>
</mxfile>
